<?xml version="1.0" encoding="utf-8"?>
<!-- Generator: Adobe Illustrator 16.0.0, SVG Export Plug-In . SVG Version: 6.00 Build 0)  -->
<!DOCTYPE svg PUBLIC "-//W3C//DTD SVG 1.1//EN" "http://www.w3.org/Graphics/SVG/1.1/DTD/svg11.dtd">
<svg version="1.1" id="Layer_1" xmlns="http://www.w3.org/2000/svg" xmlns:xlink="http://www.w3.org/1999/xlink" x="0px" y="0px"
	 width="725px" height="200px" viewBox="0 0 725 200" enable-background="new 0 0 725 200" xml:space="preserve">
<title>Combined Shape</title>
<desc>Created with Sketch.</desc>
<g id="Page-1">
	
		<linearGradient id="Combined-Shape_1_" gradientUnits="userSpaceOnUse" x1="2.9214" y1="458.5195" x2="3.9214" y2="458.5195" gradientTransform="matrix(724.73 0 0 -199.5853 -2117.1902 91613.5078)">
		<stop  offset="0" style="stop-color:#2075B8"/>
		<stop  offset="1" style="stop-color:#F15C4D"/>
	</linearGradient>
	<path id="Combined-Shape" fill="url(#Combined-Shape_1_)" d="M704.697,123.441c-1.053,0.091-2.108,0.154-3.131,0.176
		c-6.431,0.136-13.091-1.301-15.283-1.926c-10.525-3.002-14.129-8.58-17.551-13.38c-3.821-5.36-5.199-29.264-5.63-44.431
		c-0.432-15.167,0-13.827,0-13.827l-21.185,11.529c0,0,1.869,41.09,2.909,44.909c2.024,7.439,6.76,14.096,10.876,18.998
		c4.733,5.637,12.666,12.058,25.226,15.865c6.195,1.878,14.565,3.838,21.845,4.107c0.655,0.025,1.297,0.035,1.924,0.033v12.736
		l-0.155,20.162l20.188,21.191c0,0,0-65.378,0-77.39V47.971l-20.033,11.831v49.213V123.441z M627.134,26.335
		c-4.025,0-7.817,0.772-11.373,2.315c-3.557,1.543-6.677,3.624-9.361,6.241c-2.684,2.617-4.797,5.704-6.341,9.26
		c-1.543,3.556-2.314,7.348-2.314,11.374v1.208c8.32-6.308,18.117-9.461,29.39-9.461v20.332c-3.489,0-6.71,0.57-9.662,1.711
		c-2.952,1.141-5.704,2.651-8.254,4.53c-3.086,2.416-5.67,5.368-7.75,8.857s-3.321,7.381-3.724,11.676v53.144H577.01V55.524
		c-0.135-6.844,1.141-13.319,3.824-19.426c2.685-6.106,6.308-11.407,10.871-15.903c4.562-4.496,9.897-8.085,16.003-10.77
		C613.814,6.742,620.29,5.4,627.134,5.4V26.335z M49.8,147.2c-4.4,0-8.469-0.466-12.2-1.4l5-20.2c2.132,0.801,4.532,1.2,7.2,1.2
		c4,0,7.8-0.766,11.4-2.3c3.6-1.531,6.731-3.631,9.4-6.3c2.666-2.666,4.766-5.8,6.3-9.4c1.531-3.6,2.3-7.466,2.3-11.6
		c0-4-0.769-7.766-2.3-11.3c-1.534-3.531-3.634-6.631-6.3-9.3c-2.669-2.666-5.8-4.766-9.4-6.3c-3.6-1.531-7.4-2.3-11.4-2.3
		s-7.8,0.769-11.4,2.3c-3.6,1.534-6.734,3.634-9.4,6.3c-2.669,2.669-4.768,5.769-6.3,9.3c-1.534,3.534-2.3,7.3-2.3,11.3v0.4v96.2
		L0,173.2V97.6v-0.4c0-6.8,1.3-13.231,3.9-19.3c2.6-6.066,6.131-11.366,10.6-15.9c4.466-4.531,9.732-8.131,15.8-10.8
		c6.066-2.666,12.566-4,19.5-4c6.8,0,13.266,1.334,19.4,4c6.131,2.669,11.466,6.269,16,10.8c4.532,4.534,8.131,9.834,10.8,15.9
		c2.666,6.069,4,12.5,4,19.3c0,6.935-1.334,13.435-4,19.5c-2.669,6.067-6.268,11.368-10.8,15.899c-4.534,4.535-9.869,8.101-16,10.7
		C63.066,145.9,56.6,147.2,49.8,147.2z M110.599,97.2c-0.134-6.8,1.1-13.231,3.7-19.3c2.6-6.066,6.166-11.366,10.7-15.9
		c4.531-4.531,9.866-8.131,16-10.8c6.131-2.666,12.665-4,19.6-4V68c-4,0-7.769,0.769-11.3,2.3c-3.534,1.534-6.635,3.6-9.3,6.2
		c-2.669,2.6-4.769,5.7-6.3,9.3c-1.535,3.6-2.3,7.4-2.3,11.4v50h-20.8V97.2z M264.8,97.2c0,6.93-1.34,13.43-4,19.5
		c-2.67,6.069-6.27,11.33-10.8,15.8c-4.54,4.47-9.84,8-15.9,10.6c-6.07,2.601-12.5,3.661-19.3,3.661c-5.31,0-10.36-0.551-15.15-2.5
		c-0.05-0.021-0.11-0.041-0.16-0.061h-0.01l7.85-18.42l0.24-0.57l0.01-0.01c2.33,1,4.73,0.95,7.22,0.95c4,0,7.8-0.721,11.4-2.25
		c3.6-1.53,6.7-3.601,9.3-6.2c2.6-2.601,4.66-5.67,6.2-9.2c1.53-3.53,2.3-7.3,2.3-11.3c0-2.89-0.4-5.68-1.21-8.36l19.22-8.08
		C263.87,85.94,264.8,91.42,264.8,97.2z M231.64,50.12l-8.19,19.17c-2.77-0.86-5.66-1.29-8.65-1.29c-4,0-7.8,0.77-11.4,2.3
		c-3.6,1.53-6.74,3.6-9.4,6.2c-2.67,2.6-4.77,5.7-6.3,9.3c-1.54,3.6-2.3,7.4-2.3,11.4c0,2.82,0.38,5.52,1.15,8.111l-18.74,8.6
		c-1.87-5.26-2.81-10.83-2.81-16.71c0-6.93,1.3-13.43,3.9-19.5c2.6-6.07,6.13-11.37,10.6-15.9c4.46-4.53,9.73-8.1,15.8-10.7
		c6.06-2.6,12.56-3.9,19.5-3.9C220.68,47.2,226.29,48.17,231.64,50.12z M328.396,147.2c-4.398,0-8.469-0.466-12.2-1.4l5-20.2
		c2.133,0.801,4.531,1.2,7.2,1.2c4,0,7.8-0.766,11.4-2.3c3.6-1.531,6.731-3.631,9.399-6.3c2.666-2.666,4.766-5.8,6.302-9.4
		c1.53-3.6,2.299-7.466,2.299-11.6c0-4-0.769-7.766-2.299-11.3c-1.536-3.531-3.636-6.631-6.302-9.3
		c-2.668-2.666-5.8-4.766-9.399-6.3c-3.601-1.531-7.4-2.3-11.4-2.3s-7.8,0.769-11.398,2.3c-3.602,1.534-6.735,3.634-9.401,6.3
		c-2.669,2.669-4.768,5.769-6.3,9.3c-1.534,3.534-2.299,7.3-2.299,11.3v0.4v96.2l-20.401-20.6V97.6v-0.4
		c0-6.8,1.3-13.231,3.901-19.3c2.599-6.066,6.13-11.366,10.599-15.9c4.466-4.531,9.732-8.131,15.8-10.8c6.065-2.666,12.565-4,19.5-4
		c6.8,0,13.267,1.334,19.4,4c6.131,2.669,11.466,6.269,16,10.8c4.532,4.534,8.131,9.834,10.8,15.9c2.666,6.069,4,12.5,4,19.3
		c0,6.935-1.334,13.435-4,19.5c-2.669,6.067-6.268,11.368-10.8,15.899c-4.534,4.535-9.869,8.101-16,10.7
		C341.663,145.9,335.196,147.2,328.396,147.2z M449.495,124.1c3.531-1.53,6.633-3.6,9.301-6.199c2.666-2.602,4.765-5.666,6.3-9.2
		c1.532-3.531,2.3-5.366,2.3-9.5h20.8c0,6.935-1.3,11.435-3.899,17.5c-2.601,6.067-6.168,11.369-10.7,15.899
		c-4.535,4.535-9.835,8.101-15.9,10.699c-6.067,2.602-12.567,3.901-19.5,3.901c-6.935,0-13.435-1.3-19.5-3.901
		c-6.067-2.599-11.369-6.164-15.899-10.699c-4.535-4.53-8.101-9.832-10.7-15.899c-2.601-6.065-3.9-12.565-3.9-19.5
		c0-6.931,1.3-13.431,3.9-19.5c2.6-6.066,6.165-11.366,10.7-15.9c4.53-4.531,9.832-8.1,15.899-10.7c6.065-2.6,12.565-3.9,19.5-3.9
		c6.8,0,13.131,1.234,19,3.7c5.865,2.469,11.065,5.834,15.601,10.1l0.399,0.4l13.601,14l-22.4,22.2h-27.6l21.399-22
		c-2.534-2.266-5.534-4.1-9-5.5c-3.469-1.4-7.135-2.1-11-2.1c-4,0-7.769,0.769-11.3,2.3c-3.534,1.534-6.635,3.634-9.3,6.3
		c-2.669,2.669-4.77,5.769-6.3,9.3c-1.535,3.534-2.301,7.3-2.301,11.3s0.766,7.769,2.301,11.3c1.53,3.534,3.631,6.635,6.3,9.299
		c2.665,2.67,5.766,4.771,9.3,6.301c3.531,1.535,7.3,2.301,11.3,2.301S445.962,125.635,449.495,124.1z M499.997,21.2l20.8-20.8
		v146.8h-20.8V21.2z M537.795,147.2h20.601v-100h-20.601V147.2z M558.396,20.8h-20.601L558.396,0V20.8z"/>
</g>
</svg>
