{"accessors":[{"name":"propelify-logo_propelify-Mesh_positions","componentType":5126,"count":1180,"min":[-2,0,-0.5485140085220337],"max":[2,0.5,0.5485140085220337],"type":"VEC3","bufferView":0,"byteOffset":0},{"name":"propelify-logo_propelify-Mesh_normals","componentType":5126,"count":1180,"min":[-1,-1,-1],"max":[1,1,1],"type":"VEC3","bufferView":0,"byteOffset":14160},{"name":"propelify-logo_propelify-Mesh_0_indices","componentType":5123,"count":372,"min":[0],"max":[187],"type":"SCALAR","bufferView":1,"byteOffset":0},{"name":"propelify-logo_propelify-Mesh_1_indices","componentType":5123,"count":132,"min":[188],"max":[259],"type":"SCALAR","bufferView":1,"byteOffset":744},{"name":"propelify-logo_propelify-Mesh_2_indices","componentType":5123,"count":360,"min":[260],"max":[451],"type":"SCALAR","bufferView":1,"byteOffset":1008},{"name":"propelify-logo_propelify-Mesh_3_indices","componentType":5123,"count":372,"min":[452],"max":[639],"type":"SCALAR","bufferView":1,"byteOffset":1728},{"name":"propelify-logo_propelify-Mesh_4_indices","componentType":5123,"count":396,"min":[640],"max":[843],"type":"SCALAR","bufferView":1,"byteOffset":2472},{"name":"propelify-logo_propelify-Mesh_5_indices","componentType":5123,"count":36,"min":[844],"max":[867],"type":"SCALAR","bufferView":1,"byteOffset":3264},{"name":"propelify-logo_propelify-Mesh_6_indices","componentType":5123,"count":60,"min":[868],"max":[909],"type":"SCALAR","bufferView":1,"byteOffset":3336},{"name":"propelify-logo_propelify-Mesh_7_indices","componentType":5123,"count":216,"min":[910],"max":[1023],"type":"SCALAR","bufferView":1,"byteOffset":3456},{"name":"propelify-logo_propelify-Mesh_8_indices","componentType":5123,"count":300,"min":[1024],"max":[1179],"type":"SCALAR","bufferView":1,"byteOffset":3888}],"asset":{"generator":"obj2gltf","version":"2.0"},"buffers":[{"name":"propelify-logo","byteLength":32808,"uri":"data:application/octet-stream;base64,"}],"bufferViews":[{"name":"bufferView_0","buffer":0,"byteLength":28320,"byteOffset":0,"byteStride":12,"target":34962},{"name":"bufferView_1","buffer":0,"byteLength":4488,"byteOffset":28320,"target":34963}],"materials":[{"name":"Material.001","pbrMetallicRoughness":{"baseColorFactor":[0.014114,0.142311,0.374227,1],"metallicFactor":0,"roughnessFactor":0.903921569},"emissiveFactor":[0.017642,0.177888,0.467784],"alphaMode":"OPAQUE","doubleSided":false},{"name":"Material.002","pbrMetallicRoughness":{"baseColorFactor":[0.047609,0.132106,0.305061,1],"metallicFactor":0,"roughnessFactor":0.903921569},"emissiveFactor":[0.059511,0.165132,0.381326],"alphaMode":"OPAQUE","doubleSided":false},{"name":"Material.003","pbrMetallicRoughness":{"baseColorFactor":[0.093577,0.122341,0.247575,1],"metallicFactor":0,"roughnessFactor":0.903921569},"emissiveFactor":[0.116971,0.152926,0.309469],"alphaMode":"OPAQUE","doubleSided":false},{"name":"Material.004","pbrMetallicRoughness":{"baseColorFactor":[0.16691,0.113011,0.193825,1],"metallicFactor":0,"roughnessFactor":0.903921569},"emissiveFactor":[0.208637,0.141263,0.242281],"alphaMode":"OPAQUE","doubleSided":false},{"name":"Material.005","pbrMetallicRoughness":{"baseColorFactor":[0.277363,0.106295,0.14758,1],"metallicFactor":0,"roughnessFactor":0.903921569},"emissiveFactor":[0.346704,0.132868,0.184475],"alphaMode":"OPAQUE","doubleSided":false},{"name":"Material.006","pbrMetallicRoughness":{"baseColorFactor":[0.365129,0.10195,0.122341,1],"metallicFactor":0,"roughnessFactor":0.903921569},"emissiveFactor":[0.456411,0.127438,0.152926],"alphaMode":"OPAQUE","doubleSided":false},{"name":"Material.007","pbrMetallicRoughness":{"baseColorFactor":[0.416797,0.097711,0.106295,1],"metallicFactor":0,"roughnessFactor":0.903921569},"emissiveFactor":[0.520996,0.122139,0.132868],"alphaMode":"OPAQUE","doubleSided":false},{"name":"Material.008","pbrMetallicRoughness":{"baseColorFactor":[0.504606,0.093577,0.089546,1],"metallicFactor":0,"roughnessFactor":0.903921569},"emissiveFactor":[0.630757,0.116971,0.111932],"alphaMode":"OPAQUE","doubleSided":false},{"name":"Material.009","pbrMetallicRoughness":{"baseColorFactor":[0.703698,0.085618,0.059371,1],"metallicFactor":0,"roughnessFactor":0.903921569},"emissiveFactor":[0.879623,0.107023,0.074214],"alphaMode":"OPAQUE","doubleSided":false}],"meshes":[{"name":"propelify-logo_propelify-Mesh","primitives":[{"attributes":{"POSITION":0,"NORMAL":1},"indices":2,"material":0,"mode":4},{"attributes":{"POSITION":0,"NORMAL":1},"indices":3,"material":1,"mode":4},{"attributes":{"POSITION":0,"NORMAL":1},"indices":4,"material":2,"mode":4},{"attributes":{"POSITION":0,"NORMAL":1},"indices":5,"material":3,"mode":4},{"attributes":{"POSITION":0,"NORMAL":1},"indices":6,"material":4,"mode":4},{"attributes":{"POSITION":0,"NORMAL":1},"indices":7,"material":5,"mode":4},{"attributes":{"POSITION":0,"NORMAL":1},"indices":8,"material":6,"mode":4},{"attributes":{"POSITION":0,"NORMAL":1},"indices":9,"material":7,"mode":4},{"attributes":{"POSITION":0,"NORMAL":1},"indices":10,"material":8,"mode":4}]}],"nodes":[{"name":"propelify-logo_propelify","mesh":0}],"scene":0,"scenes":[{"nodes":[0]}]}
